<mxfile host="app.diagrams.net" modified="2023-09-13T08:30:39.950Z" agent="Mozilla/5.0 (Macintosh; Intel Mac OS X 10_15_7) AppleWebKit/537.36 (KHTML, like Gecko) Chrome/116.0.0.0 Safari/537.36" version="21.7.4" etag="moABcgOwvz3T2UwFiztw" type="github">
  <diagram name="第 1 页" id="A7EgsZPvqEUzMFnEv31k">
    <mxGraphModel>
      <root>
        <mxCell id="0" />
        <mxCell id="1" parent="0" />
      </root>
    </mxGraphModel>
  </diagram>
</mxfile>
